# xmcd
#
# Track frame offsets:
#	150
#	21632
#	41931
#	59171
#	81603
#	103587
#	123895
#	150941
#	171925
#	187308
#	215598
#	234766
#
# Disc length: 3457 seconds
#
# Revision: 0
# Processed by: cddbd v1.4PL0 Copyright (c) Steve Scherf et al.
# Submitted via: EasyCDDAExtractor 5.0.4.1
#
DISCID=af0d7f0c
DTITLE=Go Graal Blues Band - Blackmail Ep and So Down Train
DYEAR=1900
DGENRE=Blues
TTITLE0=Blackmail EP - Love Fashion
TTITLE1=Blackmail EP - Champaigne All Night
TTITLE2=Blackmail EP - Babby Star
TTITLE3=Blackmail EP - Midnight Killer
TTITLE4=So Down Train - 01 - City Lights
TTITLE5=So Down Train - 02 - Smell
TTITLE6=So Down Train - 03 - Memories
TTITLE7=So Down Train - 04 - A Little Bit
TTITLE8=So Down Train - 05 - It's Just A Dream
TTITLE9=So Down Train - 06 - They Dont Give A Damn
TTITLE10=So Down Train - 07 - Walkin
TTITLE11=So Down Train - 08 - So Down Train
EXTD=segurarte@hotmail.com
EXTT0=
EXTT1=
EXTT2=
EXTT3=
EXTT4=
EXTT5=
EXTT6=
EXTT7=
EXTT8=
EXTT9=
EXTT10=
EXTT11=
PLAYORDER=
